<?xml version="1.0" encoding="utf-8"?>
<!-- Generator: Adobe Illustrator 25.2.1, SVG Export Plug-In . SVG Version: 6.00 Build 0)  -->
<svg version="1.1"
	 id="svg1883" inkscape:export-ydpi="96" inkscape:version="1.1 (c4e8f9e, 2021-05-24)" xmlns:inkscape="http://www.inkscape.org/namespaces/inkscape" xmlns:sodipodi="http://sodipodi.sourceforge.net/DTD/sodipodi-0.dtd" xmlns:svg="http://www.w3.org/2000/svg"
	 xmlns="http://www.w3.org/2000/svg" xmlns:xlink="http://www.w3.org/1999/xlink" x="0px" y="0px" viewBox="0 0 792 612"
	 style="enable-background:new 0 0 792 612;" xml:space="preserve">
<style type="text/css">
	.st0{fill:none;stroke:#000000;}
	.st1{fill:#ED1C24;}
</style>
<sodipodi:namedview  bordercolor="#666666" borderopacity="1.0" id="namedview1885" inkscape:current-layer="svg1883" inkscape:cx="324.45605" inkscape:cy="411.26573" inkscape:pagecheckerboard="0" inkscape:pageopacity="0.0" inkscape:pageshadow="2" inkscape:snap-global="true" inkscape:window-height="761" inkscape:window-maximized="0" inkscape:window-width="1431" inkscape:window-x="0" inkscape:window-y="25" inkscape:zoom="1.2728997" pagecolor="#ffffff" showgrid="false">
	</sodipodi:namedview>
<rect id="rect1403" x="347.8" y="458.5" class="st0" width="9" height="22.7"/>
<rect id="rect1405" x="347.8" y="406.6" class="st0" width="9" height="22.7"/>
<rect id="rect1407" x="179.4" y="458.5" class="st0" width="9" height="22.7"/>
<rect id="rect1409" x="179.4" y="406.6" class="st0" width="9" height="22.7"/>
<path id="path1411" class="st0" d="M363.6,479.7c0,4.7-3.8,8.5-8.5,8.5h-174c-4.7,0-8.5-3.8-8.5-8.5v-73.1c0-7.8,6.3-14.2,14.2-14.2
	c5.2,0,9.8,2.9,12.3,7.1h138.2c2.5-4.2,7-7.1,12.3-7.1c7.8,0,14.2,6.3,14.2,14.2L363.6,479.7L363.6,479.7z"/>
<path id="path1415" class="st1" d="M223.7,457.6c-0.5,0.1-1.1,0.1-1.8,0.1c-0.9,0-1.6-0.2-2.1-0.6c-0.4-0.4-0.6-0.9-0.6-1.6
	c0-0.7,0.2-1.2,0.6-1.6c0.5-0.5,1.3-0.8,2.3-0.8c0.3,0,0.6,0,0.8,0.1v-3h1L223.7,457.6L223.7,457.6z M222.7,454
	c-0.2-0.1-0.5-0.1-0.8-0.1c-1.2,0-1.9,0.6-1.9,1.6c0,1,0.7,1.5,1.7,1.5c0.4,0,0.7,0,0.9-0.1V454z"/>
<path id="path1417" class="st1" d="M213.4,452.9c0-2,1.4-2.8,2.7-2.8c1.4,0,2.6,1.1,2.6,2.7c0,1.8-1.2,2.8-2.6,2.8
	C214.4,455.7,213.4,454.6,213.4,452.9z M217.6,452.9c0-1.2-0.7-2-1.6-2c-0.9,0-1.6,0.9-1.6,2.1c0,0.9,0.5,2,1.6,2
	C217.1,455,217.6,453.9,217.6,452.9z"/>
<path id="path1419" class="st1" d="M212,455.6l-0.7-2.7c-0.2-0.6-0.3-1.1-0.4-1.7h0c-0.1,0.5-0.3,1.1-0.5,1.7l-0.9,2.7h-0.8
	l-0.8-2.7c-0.2-0.6-0.4-1.2-0.5-1.7h0c-0.1,0.5-0.2,1.1-0.4,1.7l-0.8,2.7h-1l1.7-5.3h0.9l0.8,2.5c0.2,0.6,0.3,1.1,0.5,1.8h0
	c0.1-0.6,0.3-1.2,0.5-1.8l0.9-2.5h0.9l1.6,5.3L212,455.6L212,455.6z"/>
<path id="path1421" class="st1" d="M204,452.7c0-1.3-0.9-1.8-1.8-1.8c-0.7,0-1.1,0.1-1.5,0.3l-0.2-0.7c0.3-0.2,0.9-0.3,1.8-0.3
	c1.6,0,2.6,1.1,2.6,2.7c0,1.6-0.9,2.9-2.5,2.9c-1.7,0-2.2-1.5-2.2-2.5c0-0.2,0-0.4,0-0.5L204,452.7L204,452.7z M201.1,453.4
	c0,0.6,0.3,1.6,1.3,1.6c1,0,1.4-0.9,1.5-1.6H201.1z"/>
<path id="path1423" class="st1" d="M199.1,453.9c0,0.6,0,1.2,0,1.7h-0.8l0-1h0c-0.2,0.7-0.8,1.2-1.5,1.2c-0.1,0-0.2,0-0.3,0v-0.9
	c0.1,0,0.2,0,0.3,0c0.7,0,1.2-0.5,1.3-1.2c0-0.1,0-0.3,0-0.5v-2.8h1V453.9z"/>
<path id="path1437" class="st0" d="M199.1,444.6c-3.1,0-5.7-2.5-5.7-5.7v-14.2c0-3.1,2.5-5.7,5.7-5.7h22.7c3.1,0,5.7,2.5,5.7,5.7
	v14.2c0,3.1-2.5,5.7-5.7,5.7H199.1z"/>
</svg>
