<?xml version="1.0" encoding="utf-8"?>
<!-- Generator: Adobe Illustrator 25.2.1, SVG Export Plug-In . SVG Version: 6.00 Build 0)  -->
<svg version="1.1"
	 id="svg1883" inkscape:export-ydpi="96" xmlns:inkscape="http://www.inkscape.org/namespaces/inkscape" xmlns:sodipodi="http://sodipodi.sourceforge.net/DTD/sodipodi-0.dtd" xmlns:svg="http://www.w3.org/2000/svg"
	 xmlns="http://www.w3.org/2000/svg" xmlns:xlink="http://www.w3.org/1999/xlink" x="0px" y="0px" viewBox="0 0 792 612"
	 style="enable-background:new 0 0 792 612;" xml:space="preserve">
<style type="text/css">
	.st0{fill:none;stroke:#000000;}
	.st1{fill:#ED1C24;}
</style>
<sodipodi:namedview  bordercolor="#666666" borderopacity="1.0" id="namedview1885" inkscape:current-layer="svg1883" inkscape:cx="366.87888" inkscape:cy="211.72132" inkscape:pagecheckerboard="0" inkscape:pageopacity="0.0" inkscape:pageshadow="2" inkscape:snap-global="true" inkscape:window-height="761" inkscape:window-maximized="0" inkscape:window-width="1431" inkscape:window-x="0" inkscape:window-y="25" inkscape:zoom="1.2728997" pagecolor="#ffffff" showgrid="false">
	</sodipodi:namedview>
<path id="path1375" class="st0" d="M445.5,432.6c0,8.5,4.2,15.4,9.5,15.4h193.7c5.2,0,9.5-6.9,9.5-15.4v-132
	c0-14.1-7.1-25.6-15.8-25.6c-5.8,0-10.9,5.2-13.6,12.8H474.9c-2.7-7.6-7.8-12.8-13.6-12.8c-8.7,0-15.8,11.5-15.8,25.6V432.6
	L445.5,432.6z"/>
<rect id="rect1403" x="321.2" y="379.7" class="st0" width="9" height="22.7"/>
<rect id="rect1405" x="321.2" y="327.8" class="st0" width="9" height="22.7"/>
<rect id="rect1407" x="143.8" y="379.7" class="st0" width="9" height="22.7"/>
<rect id="rect1409" x="143.8" y="327.8" class="st0" width="9" height="22.7"/>
<path id="path1411" class="st0" d="M342.8,432.6c0,8.5-4.2,15.4-9.5,15.4H139.7c-5.2,0-9.5-6.9-9.5-15.4v-132
	c0-14.1,7.1-25.6,15.8-25.6c5.8,0,10.9,5.2,13.6,12.8h153.8c2.7-7.6,7.8-12.8,13.6-12.8c8.7,0,15.8,11.5,15.8,25.6L342.8,432.6
	L342.8,432.6z"/>
<path id="path1415" class="st1" d="M218.6,373.4c0.5-0.1,1.1-0.1,1.8-0.1c0.9,0,1.6,0.2,2.1,0.6c0.4,0.4,0.6,0.9,0.6,1.6
	s-0.2,1.2-0.6,1.6c-0.5,0.5-1.3,0.8-2.3,0.8c-0.3,0-0.6,0-0.8-0.1v3h-1L218.6,373.4L218.6,373.4z M219.6,377
	c0.2,0.1,0.5,0.1,0.8,0.1c1.2,0,1.9-0.6,1.9-1.6s-0.7-1.5-1.7-1.5c-0.4,0-0.7,0-0.9,0.1v2.9H219.6z"/>
<path id="path1417" class="st1" d="M228.9,378c0,2-1.4,2.8-2.7,2.8c-1.4,0-2.6-1.1-2.6-2.7c0-1.8,1.2-2.8,2.6-2.8
	C227.9,375.3,228.9,376.4,228.9,378z M224.7,378.1c0,1.2,0.7,2,1.6,2c0.9,0,1.6-0.9,1.6-2.1c0-0.9-0.5-2-1.6-2
	S224.7,377.1,224.7,378.1z"/>
<path id="path1419" class="st1" d="M230.3,375.4l0.7,2.7c0.2,0.6,0.3,1.1,0.4,1.7l0,0c0.1-0.5,0.3-1.1,0.5-1.7l0.9-2.7h0.8l0.8,2.7
	c0.2,0.6,0.4,1.2,0.5,1.7l0,0c0.1-0.5,0.2-1.1,0.4-1.7l0.8-2.7h1l-1.7,5.3h-0.9l-0.8-2.5c-0.2-0.6-0.3-1.1-0.5-1.8l0,0
	c-0.1,0.6-0.3,1.2-0.5,1.8l-0.9,2.5h-0.9l-1.6-5.3H230.3L230.3,375.4z"/>
<path id="path1421" class="st1" d="M238.3,378.2c0,1.3,0.9,1.8,1.8,1.8c0.7,0,1.1-0.1,1.5-0.3l0.2,0.7c-0.3,0.2-0.9,0.3-1.8,0.3
	c-1.6,0-2.6-1.1-2.6-2.7s0.9-2.9,2.5-2.9c1.7,0,2.2,1.5,2.2,2.5c0,0.2,0,0.4,0,0.5L238.3,378.2L238.3,378.2z M241.1,377.5
	c0-0.6-0.3-1.6-1.3-1.6s-1.4,0.9-1.5,1.6H241.1z"/>
<path id="path1423" class="st1" d="M243.1,377.1c0-0.6,0-1.2,0-1.7h0.8v1l0,0c0.2-0.7,0.8-1.2,1.5-1.2c0.1,0,0.2,0,0.3,0v0.9
	c-0.1,0-0.2,0-0.3,0c-0.7,0-1.2,0.5-1.3,1.2c0,0.1,0,0.3,0,0.5v2.8h-1V377.1z"/>
<path id="path1437" class="st0" d="M221.2,367.7c-3.1,0-5.7-2.5-5.7-5.7v-14.2c0-3.1,2.5-5.7,5.7-5.7h22.7c3.1,0,5.7,2.5,5.7,5.7
	V362c0,3.1-2.5,5.7-5.7,5.7H221.2z"/>
<rect id="rect1403_1_" x="636" y="376.1" class="st0" width="9" height="22.7"/>
<rect id="rect1405_1_" x="636" y="324.2" class="st0" width="9" height="22.7"/>
<rect id="rect1407_1_" x="458.6" y="376.1" class="st0" width="9" height="22.7"/>
<rect id="rect1409_1_" x="458.6" y="324.2" class="st0" width="9" height="22.7"/>
</svg>
