<?xml version="1.0" encoding="utf-8"?>
<!-- Generator: Adobe Illustrator 25.2.3, SVG Export Plug-In . SVG Version: 6.00 Build 0)  -->
<svg version="1.1"
	 id="svg1883" xmlns:inkscape="http://www.inkscape.org/namespaces/inkscape" xmlns:sodipodi="http://sodipodi.sourceforge.net/DTD/sodipodi-0.dtd" xmlns:svg="http://www.w3.org/2000/svg"
	 xmlns="http://www.w3.org/2000/svg" xmlns:xlink="http://www.w3.org/1999/xlink" x="0px" y="0px" viewBox="0 0 792 612"
	 style="enable-background:new 0 0 792 612;" xml:space="preserve">
<style type="text/css">
	.st0{fill:none;stroke:#000000;}
	.st1{fill:none;stroke:#000000;stroke-width:1.0104;}
	.st2{fill:#ED1C24;}
	.st3{fill:none;stroke:#000000;stroke-miterlimit:2.6131;}
</style>
<sodipodi:namedview  bordercolor="#666666" borderopacity="1.0" id="namedview1885" inkscape:current-layer="svg1883" inkscape:cx="344.88186" inkscape:cy="185.01066" inkscape:pagecheckerboard="0" inkscape:pageopacity="0.0" inkscape:pageshadow="2" inkscape:snap-global="true" inkscape:window-height="761" inkscape:window-maximized="0" inkscape:window-width="1431" inkscape:window-x="0" inkscape:window-y="25" inkscape:zoom="1.2728997" pagecolor="#ffffff" showgrid="false">
	</sodipodi:namedview>
<path id="path1279" class="st0" d="M366.1,99.4c3.1,0,5.5,2,5.5,4.4v7.4l56.9,0v-7.5c0-2.4,2.5-4.4,5.5-4.4h18v12.1
	c0,14.7,2.9,26.5,6.4,33.7c3.4,7.1,6,18.1,6,31.8c0,1.5,1.5,2.7,3.5,2.7l0,0c1.9,0,3.5-1.2,3.5-2.7c0-14.7-2.9-26.5-6.4-33.7
	c-3.4-7.1-6-18.1-6-31.8V99.3c0-4.5,4.6-8.2,10.4-8.2c5.8,0,10.4,3.7,10.4,8.2h-6.4v12.1h7.7c3.1,0,5.5,2,5.5,4.4v2.2
	c0,0.6-0.3,1.1-0.8,1.5c-1.1,0.9-1.1,2.2,0,3.1s1.1,2.2,0,3.1s-1.1,2.2,0,3.1c1.1,0.9,1.1,2.2,0,3.1c-1.1,0.9-1.1,2.2,0,3.1
	c1.1,0.9,1.1,2.2,0,3.1c-1.1,0.9-1.1,2.2,0,3.1c0.5,0.4,0.8,1,0.8,1.5l0,320.3c0,0.6-0.3,1.1-0.8,1.5c-1.1,0.9-1.1,2.2,0,3.1
	s1.1,2.2,0,3.1s-1.1,2.2,0,3.1s1.1,2.2,0,3.1s-1.1,2.2,0,3.1s1.1,2.2,0,3.1s-1.1,2.2,0,3.1c0.5,0.4,0.8,1,0.8,1.5v2.2
	c0,2.4-2.5,4.4-5.5,4.4h-7.7V506h6.4c0,4.5-4.6,8.2-10.4,8.2c-5.7,0-10.4-3.7-10.4-8.2l0-11.7c0-13.7,2.6-24.7,6-31.8
	c3.5-7.2,6.4-19,6.4-33.7c0-1.5-1.5-2.7-3.5-2.7l0,0c-1.9,0-3.5,1.2-3.5,2.7c0,13.7-2.6,24.7-6,31.8c-3.5,7.2-6.4,19-6.4,33.7
	l0,11.7h-18c-3.1,0-5.5-2-5.5-4.4v-7.2l-56.9,0v7.2c0,2.4-2.5,4.4-5.5,4.4h-24.9c0,4.5-4.6,8.2-10.4,8.2s-10.4-3.7-10.4-8.2h6.4
	l0-11.8h-7.7c-3,0-5.5-2-5.5-4.4l0-374c0-2.4,2.5-4.4,5.5-4.4h7.7v-12h-6.4c0-4.5,4.6-8.2,10.4-8.2s10.4,3.7,10.4,8.2
	C341.2,99.4,366.1,99.4,366.1,99.4z"/>
<rect id="rect1281" x="319.1" y="179.7" class="st0" width="15" height="58.2"/>
<rect id="rect1283" x="319.1" y="355.3" class="st0" width="15" height="58.2"/>
<rect id="rect1285" x="467.1" y="191.7" class="st0" width="15" height="58.2"/>
<rect id="rect1287" x="467.1" y="355.3" class="st0" width="15" height="58.2"/>
<path id="path1299" class="st1" d="M145.2,111.2l45.8,0v-7.5c0-2.4,2.5-4.4,5.5-4.4h17.9v12.1c0,14.7,2.9,26.5,6.4,33.7
	c3.4,7.1,6,18.1,6,31.8c0,1.5,1.5,2.7,3.4,2.7l0,0c1.9,0,3.4-1.2,3.4-2.7c0-14.7-2.9-26.5-6.4-33.7c-3.4-7.1-6-18.1-6-31.8v-12
	c0-4.5,4.6-8.2,10.3-8.2c5.7,0,10.3,3.7,10.3,8.2h-6.3v12.1h7.7c3,0,5.5,2,5.5,4.4v2.2c0,0.6-0.3,1.1-0.8,1.5
	c-1.1,0.9-1.1,2.2,0,3.1s1.1,2.2,0,3.1s-1.1,2.2,0,3.1c1.1,0.9,1.1,2.2,0,3.1c-1.1,0.9-1.1,2.2,0,3.1c1.1,0.9,1.1,2.2,0,3.1
	c-1.1,0.9-1.1,2.2,0,3.1c0.5,0.4,0.8,1,0.8,1.5l0,320.3c0,0.6-0.3,1.1-0.8,1.5c-1.1,0.9-1.1,2.2,0,3.1s1.1,2.2,0,3.1s-1.1,2.2,0,3.1
	s1.1,2.2,0,3.1s-1.1,2.2,0,3.1s1.1,2.2,0,3.1s-1.1,2.2,0,3.1c0.5,0.4,0.8,1,0.8,1.5v2.2c0,2.4-2.5,4.4-5.5,4.4h-7.7v11.7h6.3
	c0,4.5-4.6,8.2-10.3,8.2c-5.7,0-10.3-3.7-10.3-8.2v-11.7c0-13.7,2.6-24.7,6-31.8c3.5-7.2,6.4-19,6.4-33.7c0-1.5-1.5-2.7-3.4-2.7l0,0
	c-1.9,0-3.4,1.2-3.4,2.7c0,13.7-2.5,24.7-6,31.8c-3.5,7.2-6.4,19-6.4,33.7v11.7h-17.9c-3,0-5.5-2-5.5-4.4v-7.2l-56.8,0v7.2
	c0,2.4-2.5,4.4-5.5,4.4h-24.8c0,4.5-4.6,8.2-10.3,8.2c-5.7,0-10.3-3.7-10.3-8.2h6.3v-11.7h-7.7c-3,0-5.5-2-5.5-4.4l0-374.2
	c0-2.4,2.5-4.4,5.5-4.4h7.7v-12h-6.3c0-4.5,4.6-8.2,10.3-8.2s10.3,3.7,10.3,8.2l24.8,0c3,0,5.5,2,5.5,4.4l0,167.1
	c0,2.4,2.5,4.4,5.5,4.4s5.5-2,5.5-4.4L145.2,111.2z"/>
<rect id="rect1301" x="83.3" y="191.7" class="st0" width="15" height="58.2"/>
<rect id="rect1303" x="83.3" y="343.3" class="st0" width="15" height="58.2"/>
<rect id="rect1305" x="225.9" y="191.7" class="st0" width="15" height="58.2"/>
<rect id="rect1307" x="225.9" y="343.3" class="st0" width="15" height="58.2"/>
<path id="path1343" class="st2" d="M151.2,446.1l-0.8,2.3h-1l2.5-7.4h1.2l2.5,7.4h-1l-0.8-2.3H151.2z M153.6,445.3l-0.7-2.1
	c-0.2-0.5-0.3-0.9-0.4-1.4l0,0c-0.1,0.4-0.2,0.9-0.4,1.3l-0.7,2.1L153.6,445.3L153.6,445.3z"/>
<path id="path1345" class="st2" d="M160.8,446.9c0,0.5,0,1,0,1.5h-0.9l-0.1-0.9l0,0c-0.3,0.4-0.8,1-1.8,1c-0.8,0-1.8-0.5-1.8-2.3
	v-3.1h1v2.9c0,1,0.3,1.7,1.2,1.7c0.6,0,1.1-0.5,1.3-0.9c0.1-0.1,0.1-0.3,0.1-0.5V443h1L160.8,446.9L160.8,446.9z"/>
<path id="path1347" class="st2" d="M166.9,440.6v6.4c0,0.5,0,1,0,1.4H166v-0.9l0,0c-0.3,0.6-0.9,1-1.8,1c-1.3,0-2.3-1.1-2.3-2.7
	c0-1.8,1.1-2.9,2.4-2.9c0.8,0,1.4,0.4,1.6,0.8l0,0v-3.2h1L166.9,440.6L166.9,440.6z M165.9,445.2c0-0.1,0-0.3,0-0.4
	c-0.1-0.6-0.7-1.1-1.4-1.1c-1,0-1.6,0.9-1.6,2.1c0,1.1,0.5,2,1.6,2c0.6,0,1.2-0.4,1.4-1.2c0-0.1,0-0.3,0-0.4V445.2z"/>
<path id="path1349" class="st2" d="M169.4,441.6c0,0.3-0.2,0.6-0.6,0.6c-0.3,0-0.6-0.3-0.6-0.6c0-0.3,0.3-0.6,0.6-0.6
	C169.2,441,169.4,441.2,169.4,441.6z M168.3,448.4v-5.3h1v5.3H168.3z"/>
<path id="path1351" class="st2" d="M175.6,445.7c0,2-1.4,2.8-2.7,2.8c-1.4,0-2.6-1.1-2.6-2.7c0-1.8,1.2-2.8,2.6-2.8
	C174.5,442.9,175.6,444.1,175.6,445.7z M171.3,445.7c0,1.2,0.7,2,1.6,2s1.6-0.9,1.6-2.1c0-0.9-0.5-2-1.6-2
	C171.8,443.7,171.3,444.7,171.3,445.7z"/>
<path id="path1353" class="st2" d="M166.1,455.6c0,2.6-1.6,3.9-3.4,3.9c-2,0-3.3-1.5-3.3-3.8c0-2.4,1.5-3.9,3.4-3.9
	C164.8,451.9,166.1,453.4,166.1,455.6z M160.3,455.7c0,1.6,0.9,3,2.4,3s2.4-1.4,2.4-3.1c0-1.5-0.8-3-2.4-3S160.3,454.1,160.3,455.7z
	"/>
<path id="path1355" class="st2" d="M171.7,457.9c0,0.5,0,1,0,1.5h-0.9l-0.1-0.9l0,0c-0.3,0.4-0.8,1-1.8,1c-0.8,0-1.8-0.5-1.8-2.3
	v-3.1h1v2.9c0,1,0.3,1.7,1.2,1.7c0.6,0,1.1-0.5,1.3-0.9c0.1-0.1,0.1-0.3,0.1-0.5V454h1L171.7,457.9L171.7,457.9z"/>
<path id="path1357" class="st2" d="M174.3,452.8v1.3h1.4v0.7h-1.4v2.9c0,0.7,0.2,1,0.7,1c0.3,0,0.4,0,0.6-0.1v0.7
	c-0.2,0.1-0.5,0.1-0.9,0.1c-0.5,0-0.8-0.2-1-0.4c-0.3-0.3-0.4-0.8-0.4-1.4v-2.9h-0.8V454h0.8v-1L174.3,452.8z"/>
<circle id="circle1359" class="st3" cx="164.4" cy="478" r="9.9"/>
</svg>
