<?xml version="1.0" encoding="utf-8"?>
<!-- Generator: Adobe Illustrator 25.2.1, SVG Export Plug-In . SVG Version: 6.00 Build 0)  -->
<svg version="1.1"
	 id="svg1883" inkscape:export-ydpi="96" inkscape:version="1.1 (c4e8f9e, 2021-05-24)" xmlns:inkscape="http://www.inkscape.org/namespaces/inkscape" xmlns:sodipodi="http://sodipodi.sourceforge.net/DTD/sodipodi-0.dtd" xmlns:svg="http://www.w3.org/2000/svg"
	 xmlns="http://www.w3.org/2000/svg" xmlns:xlink="http://www.w3.org/1999/xlink" x="0px" y="0px" viewBox="0 0 792 612"
	 style="enable-background:new 0 0 792 612;" xml:space="preserve">
<style type="text/css">
	.st0{fill:none;stroke:#000000;stroke-width:1.0104;}
	.st1{fill:none;stroke:#000000;}
	.st2{fill:#ED1C24;}
	.st3{fill:none;stroke:#000000;stroke-miterlimit:2.6131;}
</style>
<sodipodi:namedview  bordercolor="#666666" borderopacity="1.0" id="namedview1885" inkscape:current-layer="svg1883" inkscape:cx="813.61255" inkscape:cy="416.18896" inkscape:pagecheckerboard="0" inkscape:pageopacity="0.0" inkscape:pageshadow="2" inkscape:snap-global="true" inkscape:window-height="761" inkscape:window-maximized="0" inkscape:window-width="1431" inkscape:window-x="0" inkscape:window-y="25" inkscape:zoom="0.74605536" pagecolor="#ffffff" showgrid="false">
	</sodipodi:namedview>
<path id="path1299" class="st0" d="M382.8,452.8v-23.5h-5.6c-1.6,0-2.9-1.3-2.9-2.8v-9.2h8.7c9.7,0,17.6-1.5,22.4-3.3
	c4.7-1.8,12-3.1,21.1-3.1c1,0,1.8-0.8,1.8-1.8l0,0c0-1-0.8-1.8-1.8-1.8c-9.7,0-17.6,1.5-22.4,3.3c-4.7,1.8-12,3.1-21.1,3.1h-8.7
	c-3,0-5.4-2.4-5.4-5.3c0-2.9,2.4-5.3,5.4-5.3v3.3h8.7v-4c0-1.6,1.3-2.8,2.9-2.8h1.4c0.4,0,0.7,0.1,1,0.4c0.6,0.6,1.5,0.6,2,0
	c0.6-0.6,1.5-0.6,2,0c0.6,0.6,1.5,0.6,2,0c0.6-0.6,1.5-0.6,2,0c0.6,0.6,1.5,0.6,2,0c0.6-0.6,1.5-0.6,2,0c0.6,0.6,1.5,0.6,2,0
	c0.3-0.3,0.7-0.4,1-0.4h212.4c0.4,0,0.7,0.1,1,0.4c0.6,0.6,1.5,0.6,2,0c0.6-0.6,1.5-0.6,2,0c0.6,0.6,1.5,0.6,2,0
	c0.6-0.6,1.5-0.6,2,0c0.6,0.6,1.5,0.6,2,0c0.6-0.6,1.5-0.6,2,0c0.6,0.6,1.5,0.6,2,0c0.3-0.3,0.7-0.4,1-0.4h1.4
	c1.6,0,2.9,1.3,2.9,2.8v4h9.1V403c3,0,5.4,2.4,5.4,5.3c0,2.9-2.4,5.3-5.4,5.3h-9.1c-9.1,0-16.4-1.3-21.1-3.1
	c-4.8-1.8-12.6-3.3-22.4-3.3c-1,0-1.8,0.8-1.8,1.8l0,0c0,1,0.8,1.8,1.8,1.8c9.1,0,16.4,1.3,21.1,3.1c4.8,1.8,12.6,3.3,22.4,3.3h9.1
	v9.2c0,1.6-1.3,2.8-2.9,2.8h-6.1v29.2h6.1c1.6,0,2.9,1.3,2.9,2.8V474c3,0,5.4,2.4,5.4,5.3s-2.4,5.3-5.4,5.3v-3.3h-9.1v4
	c0,1.6-1.3,2.8-2.9,2.8h-248c-1.6,0-2.9-1.3-2.9-2.8v-4h-8.7v3.3c-3,0-5.4-2.4-5.4-5.3s2.4-5.3,5.4-5.3v-12.8c0-1.6,1.3-2.8,2.9-2.8
	h111.4c1.6,0,2.9-1.3,2.9-2.8s-1.3-2.8-2.9-2.8L382.8,452.8z"/>
<rect id="rect1301" x="440.1" y="472.6" class="st1" width="34" height="8.8"/>
<rect id="rect1303" x="540.7" y="472.6" class="st1" width="34" height="8.8"/>
<rect id="rect1305" x="440.1" y="406.3" class="st1" width="34" height="8.8"/>
<rect id="rect1307" x="540.7" y="406.3" class="st1" width="34" height="8.8"/>
<path id="path1343" class="st2" d="M614.4,449.8l0.8-2.3h1l-2.5,7.4h-1.2l-2.5-7.4h1l0.8,2.3H614.4z M611.9,450.6l0.7,2.1
	c0.2,0.5,0.3,0.9,0.4,1.4h0c0.1-0.4,0.2-0.9,0.4-1.3l0.7-2.1L611.9,450.6L611.9,450.6z"/>
<path id="path1345" class="st2" d="M604.7,448.9c0-0.5,0-1,0-1.5h0.9l0.1,0.9h0c0.3-0.4,0.8-1,1.8-1c0.8,0,1.8,0.5,1.8,2.3v3.1h-1
	v-2.9c0-1-0.3-1.7-1.2-1.7c-0.6,0-1.1,0.5-1.3,0.9c-0.1,0.1-0.1,0.3-0.1,0.5v3.3h-1L604.7,448.9L604.7,448.9z"/>
<path id="path1347" class="st2" d="M598.7,455.3v-6.4c0-0.5,0-1,0-1.4h0.9l0,0.9h0c0.3-0.6,0.9-1,1.8-1c1.3,0,2.3,1.1,2.3,2.7
	c0,1.8-1.1,2.9-2.4,2.9c-0.8,0-1.4-0.4-1.6-0.8h0v3.2H598.7z M599.6,450.6c0,0.1,0,0.3,0,0.4c0.1,0.6,0.7,1.1,1.4,1.1
	c1,0,1.6-0.9,1.6-2.1c0-1.1-0.5-2-1.6-2c-0.6,0-1.2,0.4-1.4,1.2c0,0.1,0,0.3,0,0.4V450.6z"/>
<path id="path1349" class="st2" d="M596.1,454.3c0-0.3,0.2-0.6,0.6-0.6c0.3,0,0.6,0.3,0.6,0.6c0,0.3-0.3,0.6-0.6,0.6
	C596.4,454.9,596.1,454.6,596.1,454.3z M597.2,447.5v5.3h-1v-5.3H597.2z"/>
<path id="path1351" class="st2" d="M590,450.2c0-2,1.4-2.8,2.7-2.8c1.4,0,2.6,1.1,2.6,2.7c0,1.8-1.2,2.8-2.6,2.8
	C591,452.9,590,451.8,590,450.2z M594.2,450.1c0-1.2-0.7-2-1.6-2c-0.9,0-1.6,0.9-1.6,2.1c0,0.9,0.5,2,1.6,2
	C593.7,452.2,594.2,451.1,594.2,450.1z"/>
<path id="path1353" class="st2" d="M599.5,440.3c0-2.6,1.6-3.9,3.4-3.9c2,0,3.3,1.5,3.3,3.8c0,2.4-1.5,3.9-3.4,3.9
	C600.8,444,599.5,442.5,599.5,440.3z M605.2,440.1c0-1.6-0.9-3-2.4-3c-1.5,0-2.4,1.4-2.4,3.1c0,1.5,0.8,3,2.4,3
	C604.4,443.2,605.2,441.8,605.2,440.1z"/>
<path id="path1355" class="st2" d="M593.8,437.9c0-0.5,0-1,0-1.5h0.9l0.1,0.9h0c0.3-0.4,0.8-1,1.8-1c0.8,0,1.8,0.5,1.8,2.3v3.1h-1
	v-2.9c0-1-0.3-1.7-1.2-1.7c-0.6,0-1.1,0.5-1.3,0.9c-0.1,0.1-0.1,0.3-0.1,0.5v3.3h-1V437.9z"/>
<path id="path1357" class="st2" d="M591.2,443.1v-1.3h-1.4v-0.7h1.4v-2.9c0-0.7-0.2-1-0.7-1c-0.3,0-0.4,0-0.6,0.1l0-0.7
	c0.2-0.1,0.5-0.1,0.9-0.1c0.5,0,0.8,0.2,1,0.4c0.3,0.3,0.4,0.8,0.4,1.4v2.9h0.8v0.7h-0.8v1L591.2,443.1z"/>
<circle id="circle1359" class="st3" cx="573.6" cy="445.8" r="9.9"/>
</svg>
