<?xml version="1.0" encoding="utf-8"?>
<!-- Generator: Adobe Illustrator 25.2.1, SVG Export Plug-In . SVG Version: 6.00 Build 0)  -->
<svg version="1.1"
	 id="svg1883" inkscape:export-ydpi="96" inkscape:version="1.1 (c4e8f9e, 2021-05-24)" xmlns:inkscape="http://www.inkscape.org/namespaces/inkscape" xmlns:sodipodi="http://sodipodi.sourceforge.net/DTD/sodipodi-0.dtd" xmlns:svg="http://www.w3.org/2000/svg"
	 xmlns="http://www.w3.org/2000/svg" xmlns:xlink="http://www.w3.org/1999/xlink" x="0px" y="0px" viewBox="0 0 792 612"
	 style="enable-background:new 0 0 792 612;" xml:space="preserve">
<style type="text/css">
	.st0{fill:none;stroke:#000000;stroke-width:1.8974;}
</style>
<sodipodi:namedview  bordercolor="#666666" borderopacity="1.0" id="namedview1885" inkscape:current-layer="svg1883" inkscape:cx="379.44859" inkscape:cy="360.98681" inkscape:pagecheckerboard="0" inkscape:pageopacity="0.0" inkscape:pageshadow="2" inkscape:snap-global="true" inkscape:window-height="761" inkscape:window-maximized="0" inkscape:window-width="1431" inkscape:window-x="0" inkscape:window-y="25" inkscape:zoom="1.2728997" pagecolor="#ffffff" showgrid="false">
	</sodipodi:namedview>
<path id="path1365" class="st0" d="M639.7,450.6c0,1.9-2.2,3.4-4.8,3.4h-93.3v6.8c0,1.9-2.2,3.4-4.8,3.4h-48.5
	c-2.7,0-4.8-1.5-4.8-3.4V454H369.4v6.8c0,1.9-2.2,3.4-4.8,3.4h-48.5c-2.7,0-4.8-1.5-4.8-3.4V454h-93.3c-2.7,0-4.9-1.5-4.9-3.4V265.2
	c0-1.9,2.2-3.4,4.9-3.4h93.3V255c0-1.9,2.2-3.4,4.8-3.4h48.5c2.7,0,4.8,1.5,4.8,3.4v6.8h113.9V255c0-1.9,2.2-3.4,4.8-3.4h48.5
	c2.7,0,4.8,1.5,4.8,3.4v6.8h93.3c2.7,0,4.8,1.5,4.8,3.4V450.6z"/>
</svg>
