<?xml version="1.0" encoding="utf-8"?>
<!-- Generator: Adobe Illustrator 25.2.1, SVG Export Plug-In . SVG Version: 6.00 Build 0)  -->
<svg version="1.1"
	 id="svg1883" inkscape:export-ydpi="96" xmlns:inkscape="http://www.inkscape.org/namespaces/inkscape" xmlns:sodipodi="http://sodipodi.sourceforge.net/DTD/sodipodi-0.dtd" xmlns:svg="http://www.w3.org/2000/svg"
	 xmlns="http://www.w3.org/2000/svg" xmlns:xlink="http://www.w3.org/1999/xlink" x="0px" y="0px" viewBox="0 0 792 612"
	 style="enable-background:new 0 0 792 612;" xml:space="preserve">
<style type="text/css">
	.st0{fill:none;stroke:#000000;stroke-width:1.8974;}
	.st1{fill:none;stroke:#000000;stroke-miterlimit:2.6131;}
	.st2{fill:none;stroke:#000000;}
</style>
<sodipodi:namedview  bordercolor="#666666" borderopacity="1.0" id="namedview1885" inkscape:current-layer="svg1883" inkscape:cx="396.73197" inkscape:cy="327.99128" inkscape:pagecheckerboard="0" inkscape:pageopacity="0.0" inkscape:pageshadow="2" inkscape:snap-global="true" inkscape:window-height="761" inkscape:window-maximized="0" inkscape:window-width="1431" inkscape:window-x="0" inkscape:window-y="25" inkscape:zoom="1.2728997" pagecolor="#ffffff" showgrid="false">
	</sodipodi:namedview>
<path id="path1365" class="st0" d="M336.7,69.2c1.9,0,3.4,2.2,3.4,4.8v93.3h6.8c1.9,0,3.4,2.2,3.4,4.8v48.5c0,2.7-1.5,4.8-3.4,4.8
	h-6.8v113.9h6.8c1.9,0,3.4,2.2,3.4,4.8v48.5c0,2.7-1.5,4.8-3.4,4.8h-6.8v93.3c0,2.7-1.5,4.9-3.4,4.9H151.3c-1.9,0-3.4-2.2-3.4-4.9
	v-93.3h-6.8c-1.9,0-3.4-2.2-3.4-4.8v-48.5c0-2.7,1.5-4.8,3.4-4.8h6.8V225.4h-6.8c-1.9,0-3.4-2.2-3.4-4.8v-48.5
	c0-2.7,1.5-4.8,3.4-4.8h6.8V74c0-2.7,1.5-4.8,3.4-4.8L336.7,69.2z"/>
<ellipse id="circle1359" class="st1" cx="244" cy="173.3" rx="18.5" ry="18.6"/>
<path id="path1365_1_" class="st0" d="M678.4,64c1.9,0,3.4,2.2,3.4,4.8v93.3h6.8c1.9,0,3.4,2.2,3.4,4.8v48.5c0,2.7-1.5,4.8-3.4,4.8
	h-6.8v113.9h6.8c1.9,0,3.4,2.2,3.4,4.8v48.5c0,2.7-1.5,4.8-3.4,4.8h-6.8v93.3c0,2.7-1.5,4.9-3.4,4.9H493c-1.9,0-3.4-2.2-3.4-4.9
	v-93.3h-6.8c-1.9,0-3.4-2.2-3.4-4.8v-48.5c0-2.7,1.5-4.8,3.4-4.8h6.8V220.2h-6.8c-1.9,0-3.4-2.2-3.4-4.8v-48.5
	c0-2.7,1.5-4.8,3.4-4.8h6.8V68.8c0-2.7,1.5-4.8,3.4-4.8L678.4,64z"/>
<rect id="rect1307" x="179" y="225.5" class="st2" width="130.1" height="161"/>
</svg>
